<svg width="1135" height="410" viewBox="0 0 1135 410" fill="none" xmlns="http://www.w3.org/2000/svg">
<rect x="153.66" y="13.6603" width="280" height="280" rx="30" transform="rotate(30 153.66 13.6603)" fill="white"/>
<rect x="153.66" y="13.6603" width="280" height="280" rx="30" transform="rotate(30 153.66 13.6603)" stroke="#AF0B0A" stroke-width="20"/>
<g filter="url(#filter0_ddiiii_706_2995)">
<path fill-rule="evenodd" clip-rule="evenodd" d="M208.335 187.042C207.473 184.622 204.129 184.622 203.268 187.042L199.358 198.038L188.608 202.038C186.243 202.919 186.243 206.34 188.608 207.221L199.358 211.221L203.268 222.217C204.129 224.637 207.473 224.637 208.335 222.217L212.245 211.221L222.994 207.221C225.36 206.34 225.36 202.919 222.994 202.038L212.245 198.038L208.335 187.042Z" fill="#AF0B0A"/>
<path d="M278.692 187.807C278.692 180.161 276.719 172.591 272.889 165.543C269.058 158.496 263.447 152.111 256.386 146.765C249.325 141.419 240.955 137.219 231.768 134.412C222.581 131.605 212.763 130.247 202.889 130.418C193.015 130.589 183.284 132.285 174.269 135.408C165.254 138.531 157.135 143.016 150.389 148.601C143.644 154.187 138.408 160.759 134.988 167.932C131.569 175.106 130.035 182.736 130.477 190.375L171.786 193.903C171.589 190.5 172.036 182.149 173.56 178.953C175.083 175.758 177.416 172.83 180.421 170.342C183.426 167.853 187.042 165.855 191.059 164.464C195.075 163.073 199.41 162.317 203.808 162.241C208.207 162.165 212.581 162.77 216.674 164.02C220.766 165.271 224.495 167.142 227.641 169.523C230.787 171.905 233.286 174.749 234.993 177.889C236.699 181.029 237.578 184.401 237.578 187.807L278.692 187.807Z" fill="#AF0B0A"/>
<path d="M131.714 219.868C131.478 230.275 134.906 240.575 141.637 249.679C148.368 258.783 158.151 266.351 169.95 271.583C181.749 276.815 195.125 279.516 208.663 279.4C222.2 279.284 235.395 276.355 246.851 270.923L224.645 243.606C219.542 246.026 213.664 247.331 207.633 247.383C201.602 247.434 195.643 246.231 190.387 243.9C185.13 241.57 180.772 238.198 177.774 234.142C174.775 230.087 173.248 225.498 173.353 220.862L131.714 219.868Z" fill="#AF0B0A"/>
<path d="M263.556 223.137C275.724 233.942 282.274 246.608 278.185 251.426C274.097 256.245 260.918 251.391 248.749 240.586C236.581 229.781 230.031 217.116 234.119 212.297C238.208 207.479 251.387 212.332 263.556 223.137Z" fill="#AF0B0A"/>
</g>
<path d="M513.327 286.754H476V146.122H542.568C548.836 146.122 554.884 146.904 560.714 148.466C566.543 149.964 571.683 152.373 576.133 155.693C580.646 158.948 584.219 163.18 586.852 168.389C589.547 173.597 590.895 179.913 590.895 187.335C590.895 193.13 589.704 198.599 587.322 203.742C585.003 208.82 581.869 213.378 577.92 217.415C574.034 221.386 569.552 224.707 564.475 227.376C559.397 229.98 554.132 231.706 548.679 232.552C551.124 236.849 553.662 240.918 556.295 244.76C558.99 248.601 561.685 252.214 564.381 255.6C567.139 258.92 569.865 262.013 572.561 264.878C575.256 267.677 577.826 270.249 580.27 272.593C586.037 278.062 591.741 282.782 597.382 286.754H550.841C547.081 283.043 543.508 278.583 540.123 273.374C537.24 268.947 534.325 263.478 531.379 256.967C528.496 250.391 526.27 242.806 524.703 234.212H513.327V286.754ZM553.004 187.335C553.004 177.895 550.779 170.961 546.328 166.533C541.941 162.106 535.328 159.892 526.49 159.892H513.327V220.93H526.49C531.191 220.93 535.203 220.019 538.525 218.196C541.909 216.308 544.667 213.834 546.799 210.774C548.93 207.649 550.497 204.068 551.5 200.031C552.503 195.994 553.004 191.762 553.004 187.335Z" fill="#AF0B0A"/>
<path d="M635.085 233.236C638.971 234.147 642.858 234.863 646.744 235.384C650.63 235.905 654.548 236.165 658.497 236.165C662.634 236.165 666.457 235.775 669.967 234.994C673.54 234.147 676.612 232.78 679.181 230.892C681.814 228.939 683.883 226.367 685.387 223.177C686.891 219.986 687.643 216.015 687.643 211.262C687.643 207.421 687.142 203.905 686.139 200.715C685.136 197.524 683.632 194.79 681.626 192.511C679.683 190.232 677.27 188.474 674.386 187.237C671.503 185.935 668.15 185.284 664.326 185.284C660.753 185.284 657.525 185.968 654.642 187.335C651.821 188.702 649.314 190.558 647.12 192.902C644.989 195.181 643.14 197.85 641.573 200.91C640.068 203.97 638.815 207.16 637.812 210.481C636.809 213.801 636.088 217.154 635.649 220.54C635.211 223.925 634.991 227.116 634.991 230.111C634.991 230.631 634.991 231.152 634.991 231.673C634.991 232.194 635.022 232.715 635.085 233.236ZM713.405 210.969C713.405 215.592 712.685 219.726 711.243 223.372C709.801 226.953 707.827 230.111 705.32 232.845C702.875 235.58 700.023 237.891 696.764 239.779C693.504 241.667 690.025 243.23 686.327 244.467C682.629 245.639 678.805 246.485 674.856 247.006C670.97 247.527 667.178 247.787 663.48 247.787C658.779 247.787 654.14 247.462 649.565 246.811C644.989 246.094 640.476 244.988 636.025 243.49C636.715 247.787 637.812 251.889 639.316 255.795C640.821 259.637 642.826 263.022 645.334 265.952C647.841 268.817 650.912 271.096 654.548 272.788C658.246 274.481 662.602 275.327 667.617 275.327C670.939 275.327 674.104 274.807 677.113 273.765C680.122 272.723 682.88 271.258 685.387 269.37C687.894 267.482 690.088 265.236 691.968 262.632C693.912 260.027 695.479 257.13 696.67 253.94L710.397 259.213C708.328 264.357 705.476 268.817 701.841 272.593C698.268 276.304 694.194 279.397 689.618 281.871C685.105 284.28 680.278 286.07 675.139 287.242C670.061 288.414 665.016 289 660.001 289C651.727 289 644.08 287.568 637.06 284.703C630.039 281.773 623.991 277.704 618.913 272.495C613.836 267.287 609.856 261.069 606.973 253.842C604.089 246.615 602.648 238.705 602.648 230.111C602.648 221.516 604.089 213.606 606.973 206.379C609.856 199.152 613.836 192.934 618.913 187.726C623.991 182.517 630.039 178.481 637.06 175.616C644.08 172.686 651.727 171.221 660.001 171.221C664.013 171.221 668.118 171.514 672.318 172.1C676.518 172.686 680.592 173.63 684.541 174.932C688.49 176.169 692.219 177.797 695.729 179.815C699.239 181.834 702.28 184.34 704.849 187.335C707.482 190.265 709.551 193.683 711.055 197.589C712.622 201.496 713.405 205.956 713.405 210.969Z" fill="#AF0B0A"/>
<path d="M789.093 286.754H760.51L721.021 173.956H752.801L781.759 263.804L809.872 173.956H831.873L789.093 286.754Z" fill="#AF0B0A"/>
<path d="M869.2 233.236C873.086 234.147 876.972 234.863 880.859 235.384C884.745 235.905 888.662 236.165 892.611 236.165C896.748 236.165 900.572 235.775 904.082 234.994C907.655 234.147 910.726 232.78 913.296 230.892C915.929 228.939 917.997 226.367 919.502 223.177C921.006 219.986 921.758 216.015 921.758 211.262C921.758 207.421 921.257 203.905 920.254 200.715C919.251 197.524 917.747 194.79 915.741 192.511C913.798 190.232 911.384 188.474 908.501 187.237C905.618 185.935 902.264 185.284 898.441 185.284C894.868 185.284 891.64 185.968 888.756 187.335C885.936 188.702 883.429 190.558 881.235 192.902C879.104 195.181 877.254 197.85 875.687 200.91C874.183 203.97 872.929 207.16 871.927 210.481C870.924 213.801 870.203 217.154 869.764 220.54C869.325 223.925 869.106 227.116 869.106 230.111C869.106 230.631 869.106 231.152 869.106 231.673C869.106 232.194 869.137 232.715 869.2 233.236ZM947.52 210.969C947.52 215.592 946.799 219.726 945.358 223.372C943.916 226.953 941.942 230.111 939.434 232.845C936.99 235.58 934.138 237.891 930.878 239.779C927.619 241.667 924.14 243.23 920.442 244.467C916.744 245.639 912.92 246.485 908.971 247.006C905.085 247.527 901.293 247.787 897.595 247.787C892.893 247.787 888.255 247.462 883.679 246.811C879.104 246.094 874.59 244.988 870.14 243.49C870.83 247.787 871.927 251.889 873.431 255.795C874.935 259.637 876.941 263.022 879.448 265.952C881.956 268.817 885.027 271.096 888.662 272.788C892.361 274.481 896.717 275.327 901.731 275.327C905.054 275.327 908.219 274.807 911.228 273.765C914.236 272.723 916.994 271.258 919.502 269.37C922.009 267.482 924.203 265.236 926.083 262.632C928.026 260.027 929.593 257.13 930.784 253.94L944.511 259.213C942.443 264.357 939.591 268.817 935.955 272.593C932.383 276.304 928.308 279.397 923.733 281.871C919.22 284.28 914.393 286.07 909.253 287.242C904.176 288.414 899.13 289 894.116 289C885.842 289 878.195 287.568 871.174 284.703C864.154 281.773 858.105 277.704 853.028 272.495C847.951 267.287 843.971 261.069 841.087 253.842C838.204 246.615 836.762 238.705 836.762 230.111C836.762 221.516 838.204 213.606 841.087 206.379C843.971 199.152 847.951 192.934 853.028 187.726C858.105 182.517 864.154 178.481 871.174 175.616C878.195 172.686 885.842 171.221 894.116 171.221C898.127 171.221 902.233 171.514 906.433 172.1C910.632 172.686 914.707 173.63 918.655 174.932C922.604 176.169 926.334 177.797 929.844 179.815C933.354 181.834 936.394 184.34 938.964 187.335C941.597 190.265 943.665 193.683 945.17 197.589C946.737 201.496 947.52 205.956 947.52 210.969Z" fill="#AF0B0A"/>
<path d="M999.138 286.754H967.359V122H979.582L999.138 156.279V286.754Z" fill="#AF0B0A"/>
<path d="M1135 286.754H1103.22V273.277C1099.46 278.615 1094.92 282.587 1089.59 285.191C1084.32 287.73 1078.52 289 1072.19 289C1063.92 289 1056.52 287.47 1050 284.41C1043.49 281.35 1037.97 277.183 1033.46 271.909C1028.94 266.571 1025.5 260.32 1023.11 253.158C1020.73 245.997 1019.54 238.314 1019.54 230.111C1019.54 221.907 1020.73 214.224 1023.11 207.063C1025.5 199.901 1028.94 193.683 1033.46 188.409C1037.97 183.071 1043.49 178.871 1050 175.811C1056.52 172.751 1063.92 171.221 1072.19 171.221C1076.39 171.221 1080.37 171.872 1084.13 173.174C1087.96 174.476 1091.44 176.332 1094.57 178.741C1097.77 181.085 1100.56 183.95 1102.94 187.335C1105.38 190.656 1107.29 194.367 1108.67 198.468L1122.78 173.956H1135V286.754ZM1103.03 230.111C1103.03 227.181 1102.88 224.088 1102.56 220.833C1102.31 217.577 1101.84 214.355 1101.15 211.164C1100.46 207.974 1099.49 204.947 1098.24 202.082C1097.05 199.152 1095.48 196.58 1093.54 194.367C1091.66 192.088 1089.37 190.297 1086.67 188.995C1083.98 187.693 1080.84 187.042 1077.27 187.042C1073.7 187.042 1070.59 187.726 1067.96 189.093C1065.33 190.395 1063.07 192.186 1061.19 194.464C1059.31 196.678 1057.75 199.25 1056.49 202.18C1055.3 205.109 1054.36 208.169 1053.67 211.36C1052.98 214.55 1052.48 217.773 1052.17 221.028C1051.92 224.218 1051.79 227.246 1051.79 230.111C1051.79 232.975 1051.92 236.035 1052.17 239.291C1052.48 242.546 1052.98 245.769 1053.67 248.959C1054.36 252.149 1055.3 255.209 1056.49 258.139C1057.75 261.069 1059.31 263.673 1061.19 265.952C1063.07 268.166 1065.33 269.956 1067.96 271.323C1070.59 272.626 1073.7 273.277 1077.27 273.277C1080.53 273.277 1083.41 272.593 1085.92 271.226C1088.49 269.793 1090.72 267.905 1092.6 265.561C1094.54 263.218 1096.17 260.548 1097.49 257.553C1098.8 254.558 1099.87 251.466 1100.68 248.275C1101.5 245.085 1102.09 241.927 1102.47 238.802C1102.84 235.612 1103.03 232.715 1103.03 230.111Z" fill="#AF0B0A"/>
<defs>
<filter id="filter0_ddiiii_706_2995" x="124.002" y="125.003" width="165.8" height="165.8" filterUnits="userSpaceOnUse" color-interpolation-filters="sRGB">
<feFlood flood-opacity="0" result="BackgroundImageFix"/>
<feColorMatrix in="SourceAlpha" type="matrix" values="0 0 0 0 0 0 0 0 0 0 0 0 0 0 0 0 0 0 127 0" result="hardAlpha"/>
<feOffset dx="1" dy="1"/>
<feGaussianBlur stdDeviation="2.7"/>
<feComposite in2="hardAlpha" operator="out"/>
<feColorMatrix type="matrix" values="0 0 0 0 0 0 0 0 0 0 0 0 0 0 0 0 0 0 0.14 0"/>
<feBlend mode="normal" in2="BackgroundImageFix" result="effect1_dropShadow_706_2995"/>
<feColorMatrix in="SourceAlpha" type="matrix" values="0 0 0 0 0 0 0 0 0 0 0 0 0 0 0 0 0 0 127 0" result="hardAlpha"/>
<feOffset dx="2" dy="3"/>
<feGaussianBlur stdDeviation="4.2"/>
<feComposite in2="hardAlpha" operator="out"/>
<feColorMatrix type="matrix" values="0 0 0 0 1 0 0 0 0 0 0 0 0 0 0 0 0 0 0.2 0"/>
<feBlend mode="normal" in2="effect1_dropShadow_706_2995" result="effect2_dropShadow_706_2995"/>
<feBlend mode="normal" in="SourceGraphic" in2="effect2_dropShadow_706_2995" result="shape"/>
<feColorMatrix in="SourceAlpha" type="matrix" values="0 0 0 0 0 0 0 0 0 0 0 0 0 0 0 0 0 0 127 0" result="hardAlpha"/>
<feOffset dx="4" dy="-1"/>
<feGaussianBlur stdDeviation="1.35"/>
<feComposite in2="hardAlpha" operator="arithmetic" k2="-1" k3="1"/>
<feColorMatrix type="matrix" values="0 0 0 0 0 0 0 0 0 0 0 0 0 0 0 0 0 0 0.19 0"/>
<feBlend mode="normal" in2="shape" result="effect3_innerShadow_706_2995"/>
<feColorMatrix in="SourceAlpha" type="matrix" values="0 0 0 0 0 0 0 0 0 0 0 0 0 0 0 0 0 0 127 0" result="hardAlpha"/>
<feOffset dx="6" dy="9"/>
<feGaussianBlur stdDeviation="7.05"/>
<feComposite in2="hardAlpha" operator="arithmetic" k2="-1" k3="1"/>
<feColorMatrix type="matrix" values="0 0 0 0 1 0 0 0 0 0 0 0 0 0 0 0 0 0 1 0"/>
<feBlend mode="normal" in2="effect3_innerShadow_706_2995" result="effect4_innerShadow_706_2995"/>
<feColorMatrix in="SourceAlpha" type="matrix" values="0 0 0 0 0 0 0 0 0 0 0 0 0 0 0 0 0 0 127 0" result="hardAlpha"/>
<feOffset dx="-4" dy="4"/>
<feGaussianBlur stdDeviation="2"/>
<feComposite in2="hardAlpha" operator="arithmetic" k2="-1" k3="1"/>
<feColorMatrix type="matrix" values="0 0 0 0 0 0 0 0 0 0 0 0 0 0 0 0 0 0 0.03 0"/>
<feBlend mode="normal" in2="effect4_innerShadow_706_2995" result="effect5_innerShadow_706_2995"/>
<feColorMatrix in="SourceAlpha" type="matrix" values="0 0 0 0 0 0 0 0 0 0 0 0 0 0 0 0 0 0 127 0" result="hardAlpha"/>
<feOffset dy="4"/>
<feGaussianBlur stdDeviation="7.05"/>
<feComposite in2="hardAlpha" operator="arithmetic" k2="-1" k3="1"/>
<feColorMatrix type="matrix" values="0 0 0 0 0 0 0 0 0 0 0 0 0 0 0 0 0 0 0.25 0"/>
<feBlend mode="normal" in2="effect5_innerShadow_706_2995" result="effect6_innerShadow_706_2995"/>
</filter>
</defs>
</svg>
