<svg width="1142" height="410" viewBox="0 0 1142 410" fill="none" xmlns="http://www.w3.org/2000/svg">
<path d="M520.327 286.754H483V146.122H549.568C555.836 146.122 561.884 146.904 567.714 148.466C573.543 149.964 578.683 152.373 583.133 155.693C587.646 158.948 591.219 163.18 593.852 168.389C596.547 173.597 597.895 179.913 597.895 187.335C597.895 193.13 596.704 198.599 594.322 203.742C592.003 208.82 588.869 213.378 584.92 217.415C581.034 221.386 576.552 224.707 571.475 227.376C566.397 229.98 561.132 231.706 555.679 232.552C558.124 236.849 560.662 240.918 563.295 244.76C565.99 248.601 568.685 252.214 571.381 255.6C574.139 258.92 576.865 262.013 579.561 264.878C582.256 267.677 584.826 270.249 587.27 272.593C593.037 278.062 598.741 282.782 604.382 286.754H557.841C554.081 283.043 550.508 278.583 547.123 273.374C544.24 268.947 541.325 263.478 538.379 256.967C535.496 250.391 533.27 242.806 531.703 234.212H520.327V286.754ZM560.004 187.335C560.004 177.895 557.779 170.961 553.328 166.533C548.941 162.106 542.328 159.892 533.49 159.892H520.327V220.93H533.49C538.191 220.93 542.203 220.019 545.525 218.196C548.909 216.308 551.667 213.834 553.799 210.774C555.93 207.649 557.497 204.068 558.5 200.031C559.503 195.994 560.004 191.762 560.004 187.335Z" fill="white"/>
<path d="M642.085 233.236C645.971 234.147 649.858 234.863 653.744 235.384C657.63 235.905 661.548 236.165 665.497 236.165C669.634 236.165 673.457 235.775 676.967 234.994C680.54 234.147 683.612 232.78 686.181 230.892C688.814 228.939 690.883 226.367 692.387 223.177C693.891 219.986 694.643 216.015 694.643 211.262C694.643 207.421 694.142 203.905 693.139 200.715C692.136 197.524 690.632 194.79 688.626 192.511C686.683 190.232 684.27 188.474 681.386 187.237C678.503 185.935 675.15 185.284 671.326 185.284C667.753 185.284 664.525 185.968 661.642 187.335C658.821 188.702 656.314 190.558 654.12 192.902C651.989 195.181 650.14 197.85 648.573 200.91C647.068 203.97 645.815 207.16 644.812 210.481C643.809 213.801 643.088 217.154 642.649 220.54C642.211 223.925 641.991 227.116 641.991 230.111C641.991 230.631 641.991 231.152 641.991 231.673C641.991 232.194 642.022 232.715 642.085 233.236ZM720.405 210.969C720.405 215.592 719.685 219.726 718.243 223.372C716.801 226.953 714.827 230.111 712.32 232.845C709.875 235.58 707.023 237.891 703.764 239.779C700.504 241.667 697.025 243.23 693.327 244.467C689.629 245.639 685.805 246.485 681.856 247.006C677.97 247.527 674.178 247.787 670.48 247.787C665.779 247.787 661.14 247.462 656.565 246.811C651.989 246.094 647.476 244.988 643.025 243.49C643.715 247.787 644.812 251.889 646.316 255.795C647.821 259.637 649.826 263.022 652.334 265.952C654.841 268.817 657.912 271.096 661.548 272.788C665.246 274.481 669.602 275.327 674.617 275.327C677.939 275.327 681.104 274.807 684.113 273.765C687.122 272.723 689.88 271.258 692.387 269.37C694.894 267.482 697.088 265.236 698.968 262.632C700.912 260.027 702.479 257.13 703.67 253.94L717.397 259.213C715.328 264.357 712.476 268.817 708.841 272.593C705.268 276.304 701.194 279.397 696.618 281.871C692.105 284.28 687.278 286.07 682.139 287.242C677.061 288.414 672.016 289 667.001 289C658.727 289 651.08 287.568 644.06 284.703C637.039 281.773 630.991 277.704 625.913 272.495C620.836 267.287 616.856 261.069 613.973 253.842C611.089 246.615 609.648 238.705 609.648 230.111C609.648 221.516 611.089 213.606 613.973 206.379C616.856 199.152 620.836 192.934 625.913 187.726C630.991 182.517 637.039 178.481 644.06 175.616C651.08 172.686 658.727 171.221 667.001 171.221C671.013 171.221 675.118 171.514 679.318 172.1C683.518 172.686 687.592 173.63 691.541 174.932C695.49 176.169 699.219 177.797 702.729 179.815C706.239 181.834 709.28 184.34 711.849 187.335C714.482 190.265 716.551 193.683 718.055 197.589C719.622 201.496 720.405 205.956 720.405 210.969Z" fill="white"/>
<path d="M796.093 286.754H767.51L728.021 173.956H759.801L788.759 263.804L816.872 173.956H838.873L796.093 286.754Z" fill="white"/>
<path d="M876.2 233.236C880.086 234.147 883.972 234.863 887.859 235.384C891.745 235.905 895.662 236.165 899.611 236.165C903.748 236.165 907.572 235.775 911.082 234.994C914.655 234.147 917.726 232.78 920.296 230.892C922.929 228.939 924.997 226.367 926.502 223.177C928.006 219.986 928.758 216.015 928.758 211.262C928.758 207.421 928.257 203.905 927.254 200.715C926.251 197.524 924.747 194.79 922.741 192.511C920.798 190.232 918.384 188.474 915.501 187.237C912.618 185.935 909.264 185.284 905.441 185.284C901.868 185.284 898.64 185.968 895.756 187.335C892.936 188.702 890.429 190.558 888.235 192.902C886.104 195.181 884.254 197.85 882.687 200.91C881.183 203.97 879.929 207.16 878.927 210.481C877.924 213.801 877.203 217.154 876.764 220.54C876.325 223.925 876.106 227.116 876.106 230.111C876.106 230.631 876.106 231.152 876.106 231.673C876.106 232.194 876.137 232.715 876.2 233.236ZM954.52 210.969C954.52 215.592 953.799 219.726 952.358 223.372C950.916 226.953 948.942 230.111 946.434 232.845C943.99 235.58 941.138 237.891 937.878 239.779C934.619 241.667 931.14 243.23 927.442 244.467C923.744 245.639 919.92 246.485 915.971 247.006C912.085 247.527 908.293 247.787 904.595 247.787C899.893 247.787 895.255 247.462 890.679 246.811C886.104 246.094 881.59 244.988 877.14 243.49C877.83 247.787 878.927 251.889 880.431 255.795C881.935 259.637 883.941 263.022 886.448 265.952C888.956 268.817 892.027 271.096 895.662 272.788C899.361 274.481 903.717 275.327 908.731 275.327C912.054 275.327 915.219 274.807 918.228 273.765C921.236 272.723 923.994 271.258 926.502 269.37C929.009 267.482 931.203 265.236 933.083 262.632C935.026 260.027 936.593 257.13 937.784 253.94L951.511 259.213C949.443 264.357 946.591 268.817 942.955 272.593C939.383 276.304 935.308 279.397 930.733 281.871C926.22 284.28 921.393 286.07 916.253 287.242C911.176 288.414 906.13 289 901.116 289C892.842 289 885.195 287.568 878.174 284.703C871.154 281.773 865.105 277.704 860.028 272.495C854.951 267.287 850.971 261.069 848.087 253.842C845.204 246.615 843.762 238.705 843.762 230.111C843.762 221.516 845.204 213.606 848.087 206.379C850.971 199.152 854.951 192.934 860.028 187.726C865.105 182.517 871.154 178.481 878.174 175.616C885.195 172.686 892.842 171.221 901.116 171.221C905.127 171.221 909.233 171.514 913.433 172.1C917.632 172.686 921.707 173.63 925.655 174.932C929.604 176.169 933.334 177.797 936.844 179.815C940.354 181.834 943.394 184.34 945.964 187.335C948.597 190.265 950.665 193.683 952.17 197.589C953.737 201.496 954.52 205.956 954.52 210.969Z" fill="white"/>
<path d="M1006.14 286.754H974.359V122H986.582L1006.14 156.279V286.754Z" fill="white"/>
<path d="M1142 286.754H1110.22V273.277C1106.46 278.615 1101.92 282.587 1096.59 285.191C1091.32 287.73 1085.52 289 1079.19 289C1070.92 289 1063.52 287.47 1057 284.41C1050.49 281.35 1044.97 277.183 1040.46 271.909C1035.94 266.571 1032.5 260.32 1030.11 253.158C1027.73 245.997 1026.54 238.314 1026.54 230.111C1026.54 221.907 1027.73 214.224 1030.11 207.063C1032.5 199.901 1035.94 193.683 1040.46 188.409C1044.97 183.071 1050.49 178.871 1057 175.811C1063.52 172.751 1070.92 171.221 1079.19 171.221C1083.39 171.221 1087.37 171.872 1091.13 173.174C1094.96 174.476 1098.44 176.332 1101.57 178.741C1104.77 181.085 1107.56 183.95 1109.94 187.335C1112.38 190.656 1114.29 194.367 1115.67 198.468L1129.78 173.956H1142V286.754ZM1110.03 230.111C1110.03 227.181 1109.88 224.088 1109.56 220.833C1109.31 217.577 1108.84 214.355 1108.15 211.164C1107.46 207.974 1106.49 204.947 1105.24 202.082C1104.05 199.152 1102.48 196.58 1100.54 194.367C1098.66 192.088 1096.37 190.297 1093.67 188.995C1090.98 187.693 1087.84 187.042 1084.27 187.042C1080.7 187.042 1077.59 187.726 1074.96 189.093C1072.33 190.395 1070.07 192.186 1068.19 194.464C1066.31 196.678 1064.75 199.25 1063.49 202.18C1062.3 205.109 1061.36 208.169 1060.67 211.36C1059.98 214.55 1059.48 217.773 1059.17 221.028C1058.92 224.218 1058.79 227.246 1058.79 230.111C1058.79 232.975 1058.92 236.035 1059.17 239.291C1059.48 242.546 1059.98 245.769 1060.67 248.959C1061.36 252.149 1062.3 255.209 1063.49 258.139C1064.75 261.069 1066.31 263.673 1068.19 265.952C1070.07 268.166 1072.33 269.956 1074.96 271.323C1077.59 272.626 1080.7 273.277 1084.27 273.277C1087.53 273.277 1090.41 272.593 1092.92 271.226C1095.49 269.793 1097.72 267.905 1099.6 265.561C1101.54 263.218 1103.17 260.548 1104.49 257.553C1105.8 254.558 1106.87 251.466 1107.68 248.275C1108.5 245.085 1109.09 241.927 1109.47 238.802C1109.84 235.612 1110.03 232.715 1110.03 230.111Z" fill="white"/>
<g filter="url(#filter0_d_704_2981)">
<rect x="150" width="300" height="300" rx="30" transform="rotate(30 150 0)" fill="#AF0B0A"/>
</g>
<g filter="url(#filter1_dddii_704_2981)">
<path fill-rule="evenodd" clip-rule="evenodd" d="M208.835 187.543C207.973 185.123 204.629 185.123 203.768 187.543L199.858 198.539L189.108 202.539C186.743 203.42 186.743 206.84 189.108 207.722L199.858 211.722L203.768 222.718C204.629 225.138 207.973 225.138 208.835 222.718L212.745 211.722L223.494 207.722C225.86 206.84 225.86 203.42 223.494 202.539L212.745 198.539L208.835 187.543Z" fill="white"/>
<path d="M279.192 188.308C279.192 180.662 277.219 173.092 273.389 166.044C269.558 158.997 263.947 152.612 256.886 147.266C249.825 141.92 241.455 137.72 232.268 134.913C223.081 132.106 213.263 130.748 203.389 130.919C193.515 131.09 183.784 132.786 174.769 135.909C165.754 139.031 157.635 143.517 150.889 149.102C144.144 154.688 138.908 161.26 135.488 168.433C132.069 175.607 130.535 183.237 130.977 190.876L172.286 194.404C172.089 191.001 172.536 182.65 174.06 179.454C175.583 176.259 177.916 173.331 180.921 170.842C183.926 168.354 187.542 166.356 191.559 164.965C195.575 163.574 199.91 162.818 204.308 162.742C208.707 162.666 213.081 163.271 217.174 164.521C221.266 165.772 224.995 167.643 228.141 170.024C231.287 172.406 233.786 175.25 235.493 178.39C237.199 181.53 238.078 184.902 238.078 188.308H279.192Z" fill="white"/>
<path d="M132.214 220.369C131.978 230.776 135.406 241.076 142.137 250.18C148.868 259.284 158.651 266.852 170.45 272.084C182.249 277.316 195.625 280.017 209.163 279.901C222.7 279.785 235.895 276.856 247.351 271.424L225.145 244.107C220.042 246.527 214.164 247.832 208.133 247.884C202.102 247.935 196.143 246.732 190.887 244.401C185.63 242.071 181.272 238.699 178.274 234.643C175.275 230.588 173.748 225.999 173.853 221.363L132.214 220.369Z" fill="white"/>
<path d="M264.056 223.638C276.224 234.443 282.774 247.109 278.685 251.927C274.597 256.745 261.418 251.892 249.249 241.087C237.081 230.282 230.531 217.617 234.619 212.798C238.708 207.98 251.887 212.833 264.056 223.638Z" fill="white"/>
</g>
<defs>
<filter id="filter0_d_704_2981" x="-11" y="-11" width="431.809" height="431.808" filterUnits="userSpaceOnUse" color-interpolation-filters="sRGB">
<feFlood flood-opacity="0" result="BackgroundImageFix"/>
<feColorMatrix in="SourceAlpha" type="matrix" values="0 0 0 0 0 0 0 0 0 0 0 0 0 0 0 0 0 0 127 0" result="hardAlpha"/>
<feOffset/>
<feGaussianBlur stdDeviation="5.5"/>
<feComposite in2="hardAlpha" operator="out"/>
<feColorMatrix type="matrix" values="0 0 0 0 0 0 0 0 0 0 0 0 0 0 0 0 0 0 0.25 0"/>
<feBlend mode="normal" in2="BackgroundImageFix" result="effect1_dropShadow_704_2981"/>
<feBlend mode="normal" in="SourceGraphic" in2="effect1_dropShadow_704_2981" result="shape"/>
</filter>
<filter id="filter1_dddii_704_2981" x="125.902" y="127.904" width="158" height="160" filterUnits="userSpaceOnUse" color-interpolation-filters="sRGB">
<feFlood flood-opacity="0" result="BackgroundImageFix"/>
<feColorMatrix in="SourceAlpha" type="matrix" values="0 0 0 0 0 0 0 0 0 0 0 0 0 0 0 0 0 0 127 0" result="hardAlpha"/>
<feOffset dy="4"/>
<feGaussianBlur stdDeviation="2"/>
<feComposite in2="hardAlpha" operator="out"/>
<feColorMatrix type="matrix" values="0 0 0 0 0 0 0 0 0 0 0 0 0 0 0 0 0 0 0.25 0"/>
<feBlend mode="normal" in2="BackgroundImageFix" result="effect1_dropShadow_704_2981"/>
<feColorMatrix in="SourceAlpha" type="matrix" values="0 0 0 0 0 0 0 0 0 0 0 0 0 0 0 0 0 0 127 0" result="hardAlpha"/>
<feOffset dx="-1" dy="1"/>
<feGaussianBlur stdDeviation="2"/>
<feComposite in2="hardAlpha" operator="out"/>
<feColorMatrix type="matrix" values="0 0 0 0 0.941176 0 0 0 0 0 0 0 0 0 0 0 0 0 1 0"/>
<feBlend mode="normal" in2="effect1_dropShadow_704_2981" result="effect2_dropShadow_704_2981"/>
<feColorMatrix in="SourceAlpha" type="matrix" values="0 0 0 0 0 0 0 0 0 0 0 0 0 0 0 0 0 0 127 0" result="hardAlpha"/>
<feOffset dy="1"/>
<feComposite in2="hardAlpha" operator="out"/>
<feColorMatrix type="matrix" values="0 0 0 0 0 0 0 0 0 0 0 0 0 0 0 0 0 0 0.08 0"/>
<feBlend mode="normal" in2="effect2_dropShadow_704_2981" result="effect3_dropShadow_704_2981"/>
<feBlend mode="normal" in="SourceGraphic" in2="effect3_dropShadow_704_2981" result="shape"/>
<feColorMatrix in="SourceAlpha" type="matrix" values="0 0 0 0 0 0 0 0 0 0 0 0 0 0 0 0 0 0 127 0" result="hardAlpha"/>
<feOffset dy="4"/>
<feGaussianBlur stdDeviation="2"/>
<feComposite in2="hardAlpha" operator="arithmetic" k2="-1" k3="1"/>
<feColorMatrix type="matrix" values="0 0 0 0 0.0627451 0 0 0 0 0.0627451 0 0 0 0 0.0627451 0 0 0 0.26 0"/>
<feBlend mode="normal" in2="shape" result="effect4_innerShadow_704_2981"/>
<feColorMatrix in="SourceAlpha" type="matrix" values="0 0 0 0 0 0 0 0 0 0 0 0 0 0 0 0 0 0 127 0" result="hardAlpha"/>
<feOffset dy="4"/>
<feGaussianBlur stdDeviation="2.5"/>
<feComposite in2="hardAlpha" operator="arithmetic" k2="-1" k3="1"/>
<feColorMatrix type="matrix" values="0 0 0 0 1 0 0 0 0 1 0 0 0 0 1 0 0 0 0.25 0"/>
<feBlend mode="normal" in2="effect4_innerShadow_704_2981" result="effect5_innerShadow_704_2981"/>
</filter>
</defs>
</svg>
